<?xml version="1.0" encoding="utf-8"?>
<!-- Generator: Adobe Illustrator 16.0.0, SVG Export Plug-In . SVG Version: 6.00 Build 0)  -->
<!DOCTYPE svg PUBLIC "-//W3C//DTD SVG 1.1//EN" "http://www.w3.org/Graphics/SVG/1.1/DTD/svg11.dtd">
<svg version="1.1" id="Layer_1" xmlns:sketch="http://www.bohemiancoding.com/sketch/ns"
	 xmlns="http://www.w3.org/2000/svg" xmlns:xlink="http://www.w3.org/1999/xlink" x="0px" y="0px" width="147px" height="52px"
	 viewBox="0 0 147 52" enable-background="new 0 0 147 52" xml:space="preserve">
<title>app_store</title>
<g sketch:type="MSLayerGroup">
	<path sketch:type="MSShapeGroup" fill="#3E404A" d="M3,0h141c1.656,0,3,1.343,3,3v46c0,1.656-1.344,3-3,3H3c-1.657,0-3-1.344-3-3V3
		C0,1.343,1.343,0,3,0z"/>
	<path sketch:type="MSShapeGroup" fill="#F1F3F4" d="M89.783,29.873c-1.182-0.466-2-0.898-2.451-1.298
		c-0.518-0.439-0.775-0.993-0.775-1.656c0-0.599,0.226-1.109,0.676-1.533c0.537-0.455,1.285-0.698,2.238-0.698
		c1.207,0,2.288,0.262,3.24,0.777l0.682-2.204c-1.02-0.531-2.297-0.8-3.832-0.8c-1.723,0-3.104,0.443-4.147,1.326
		c-1.045,0.886-1.562,2.022-1.562,3.408c0,2.119,1.479,3.731,4.433,4.83c1.086,0.404,1.856,0.836,2.327,1.304
		c0.466,0.47,0.699,1.046,0.699,1.722c0,0.778-0.285,1.391-0.85,1.85c-0.568,0.455-1.359,0.688-2.383,0.688
		c-1.416,0-2.717-0.354-3.902-1.051l-0.628,2.253c1.101,0.698,2.556,1.05,4.376,1.05c1.963,0,3.494-0.488,4.6-1.476
		c0.994-0.897,1.498-2.07,1.498-3.507c0-1.168-0.346-2.143-1.026-2.928C92.307,31.143,91.241,30.453,89.783,29.873z M99.074,24.388
		l-2.652,0.802v2.229h-1.777v2.026h1.777v6.14c0,1.536,0.299,2.632,0.906,3.28c0.598,0.656,1.439,0.978,2.502,0.978
		c0.869,0,1.568-0.102,2.104-0.302l-0.076-2.049c-0.319,0.082-0.717,0.117-1.2,0.117c-1.054,0-1.582-0.744-1.582-2.246v-5.918h2.985
		v-2.026h-2.985L99.074,24.388L99.074,24.388z M60.034,27.174c-1.839,0-3.206,0.727-4.112,2.174h-0.047l-0.149-1.93h-2.38
		c0.069,1.367,0.104,2.699,0.104,4.001v13.108h2.703v-6.393c0.703,1.157,1.859,1.731,3.475,1.731c1.493,0,2.746-0.535,3.751-1.599
		c1.129-1.205,1.691-2.834,1.691-4.912c0-1.853-0.482-3.35-1.439-4.482C62.665,27.736,61.47,27.174,60.034,27.174z M61.461,36.563
		c-0.567,0.787-1.366,1.176-2.382,1.176c-0.867,0-1.573-0.307-2.115-0.909c-0.546-0.608-0.813-1.358-0.813-2.245v-2.025
		c0-0.219,0.041-0.492,0.124-0.828c0.167-0.719,0.521-1.299,1.065-1.746c0.544-0.443,1.146-0.664,1.813-0.664
		c0.987,0,1.771,0.41,2.357,1.207c0.535,0.767,0.799,1.744,0.799,2.928C62.31,34.741,62.029,35.777,61.461,36.563L61.461,36.563z
		 M73.556,27.174c-1.836,0-3.201,0.727-4.109,2.174H69.4l-0.156-1.93h-2.373c0.065,1.367,0.1,2.699,0.1,4.001v13.108h2.706v-6.393
		c0.703,1.157,1.861,1.731,3.473,1.731c1.497,0,2.745-0.535,3.752-1.599c1.127-1.205,1.689-2.834,1.689-4.912
		c0-1.853-0.479-3.35-1.441-4.482C76.191,27.736,74.992,27.174,73.556,27.174z M74.984,36.563c-0.567,0.787-1.359,1.176-2.383,1.176
		c-0.864,0-1.571-0.307-2.112-0.909c-0.545-0.608-0.813-1.358-0.813-2.245v-2.025c0-0.219,0.04-0.492,0.123-0.828
		c0.168-0.719,0.524-1.299,1.067-1.746c0.545-0.443,1.144-0.664,1.814-0.664c0.984,0,1.77,0.41,2.358,1.207
		c0.532,0.767,0.802,1.744,0.802,2.928C75.84,34.741,75.555,35.777,74.984,36.563L74.984,36.563z M134.568,32.932
		c0-1.521-0.36-2.8-1.076-3.838c-0.898-1.301-2.225-1.949-3.982-1.949c-1.783,0-3.203,0.648-4.26,1.949
		c-1,1.225-1.504,2.749-1.504,4.59c0,1.867,0.544,3.358,1.619,4.469c1.076,1.111,2.561,1.662,4.443,1.662
		c1.572,0,2.938-0.244,4.084-0.75l-0.427-1.881c-0.983,0.391-2.075,0.582-3.28,0.582c-1.086,0-1.971-0.285-2.652-0.854
		c-0.754-0.634-1.146-1.55-1.18-2.75h8.117C134.534,33.822,134.568,33.412,134.568,32.932L134.568,32.932z M126.354,32.227
		c0.082-0.814,0.353-1.518,0.804-2.1c0.553-0.73,1.271-1.107,2.153-1.107c0.967,0,1.687,0.383,2.155,1.129
		c0.366,0.59,0.538,1.277,0.523,2.078H126.354z M120.564,27.823c-0.621,0.481-1.069,1.127-1.353,1.925h-0.073l-0.103-2.33h-2.354
		c0.049,1.156,0.072,2.434,0.072,3.829v8.345h2.705v-6.387c0-0.977,0.225-1.768,0.676-2.402c0.52-0.716,1.252-1.074,2.204-1.074
		c0.3,0,0.585,0.021,0.853,0.067v-2.577c-0.196-0.031-0.424-0.044-0.672-0.044C121.82,27.175,121.166,27.385,120.564,27.823z
		 M108.893,27.174c-1.854,0-3.322,0.594-4.418,1.799c-1.094,1.201-1.639,2.748-1.639,4.633c0,1.802,0.527,3.302,1.587,4.484
		c1.06,1.186,2.487,1.777,4.276,1.777c1.85,0,3.336-0.616,4.458-1.85c1.069-1.207,1.6-2.735,1.6-4.611
		c0-1.818-0.519-3.311-1.55-4.455C112.121,27.76,110.688,27.174,108.893,27.174L108.893,27.174z M111.197,36.359
		c-0.582,0.988-1.395,1.477-2.424,1.477c-1.058,0-1.875-0.48-2.455-1.445c-0.488-0.799-0.729-1.754-0.729-2.873
		c0-1.149,0.24-2.121,0.729-2.918c0.565-0.968,1.393-1.447,2.475-1.447c1.055,0,1.861,0.479,2.438,1.447
		c0.48,0.797,0.724,1.758,0.724,2.871C111.954,34.583,111.701,35.551,111.197,36.359L111.197,36.359z M43.27,23.007L37.839,39.74
		h2.802l1.505-4.955h5.487l1.576,4.955h2.882L46.63,23.007H43.27z M42.621,32.703l1.403-4.408c0.371-1.404,0.635-2.464,0.805-3.182
		h0.047c0.416,1.668,0.703,2.729,0.856,3.182l1.422,4.408H42.621z"/>
	<path sketch:type="MSShapeGroup" fill="#FFFFFF" d="M24.467,10.988H13.453c-1.36,0-2.468,1.104-2.468,2.464V37.5
		c0,1.357,1.108,2.461,2.468,2.461h11.014c1.358,0,2.511-1.104,2.511-2.461V13.452C26.978,12.093,25.826,10.988,24.467,10.988z
		 M17.5,12.999h3c0.276,0,0.5,0.225,0.5,0.5C21,13.775,20.776,14,20.5,14h-3c-0.276,0-0.5-0.225-0.5-0.501
		C17,13.224,17.224,12.999,17.5,12.999z M19,38c-0.552,0-1-0.448-1-1c0-0.553,0.448-1.001,1-1.001s1,0.448,1,1.001
		C20,37.552,19.552,38,19,38z M25,33.999H13V16h12V33.999z"/>
</g>
<text transform="matrix(1 0 0 1 37.375 18.25)" fill="#F1F3F4" font-family="'MyriadPro-Regular'" font-size="13.5">Soon on the</text>
</svg>
