<?xml version="1.0" encoding="utf-8"?>
<!-- Generator: Adobe Illustrator 16.0.0, SVG Export Plug-In . SVG Version: 6.00 Build 0)  -->
<!DOCTYPE svg PUBLIC "-//W3C//DTD SVG 1.1//EN" "http://www.w3.org/Graphics/SVG/1.1/DTD/svg11.dtd">
<svg version="1.1" id="Layer_1" xmlns="http://www.w3.org/2000/svg" xmlns:xlink="http://www.w3.org/1999/xlink" x="0px" y="0px"
	 width="250px" height="250px" viewBox="0 0 250 250" enable-background="new 0 0 250 250" xml:space="preserve">
<g>
	<g>
		<g>
			<defs>
				<rect id="SVGID_1_" x="37.3" y="26.33" width="190.034" height="185.632"/>
			</defs>
			<clipPath id="SVGID_2_">
				<use xlink:href="#SVGID_1_"  overflow="visible"/>
			</clipPath>
			<g clip-path="url(#SVGID_2_)">
				<g>
					<defs>
						<rect id="SVGID_3_" x="37.3" y="26.33" width="190.034" height="185.632"/>
					</defs>
					<clipPath id="SVGID_4_">
						<use xlink:href="#SVGID_3_"  overflow="visible"/>
					</clipPath>
					<g clip-path="url(#SVGID_4_)">
						<g opacity="0.2">
							<g>
								<defs>
									<rect id="SVGID_5_" x="72.931" y="78.539" width="118.771" height="104.418"/>
								</defs>
								<clipPath id="SVGID_6_">
									<use xlink:href="#SVGID_5_"  overflow="visible"/>
								</clipPath>
								<path clip-path="url(#SVGID_6_)" fill="#231F20" d="M191.702,171.355c0,6.406-5.317,11.602-11.877,11.602H84.809
									c-6.559,0-11.877-5.193-11.877-11.602V90.141c0-6.407,5.319-11.602,11.877-11.602h95.017c6.56,0,11.877,5.195,11.877,11.602
									L191.702,171.355L191.702,171.355z"/>
							</g>
						</g>
						<g id="Layer_3">
							<defs>
								<rect id="SVGID_7_" x="37.3" y="26.33" width="190.034" height="185.632"/>
							</defs>
							<defs>
								<rect id="SVGID_8_" x="37.3" y="26.33" width="190.034" height="185.632"/>
							</defs>
							<clipPath id="SVGID_9_">
								<use xlink:href="#SVGID_7_"  overflow="visible"/>
							</clipPath>
							<clipPath id="SVGID_10_" clip-path="url(#SVGID_9_)">
								<use xlink:href="#SVGID_8_"  overflow="visible"/>
							</clipPath>
							<path clip-path="url(#SVGID_10_)" fill="#04BDAD" d="M191.702,165.555c0,6.406-5.317,11.603-11.877,11.603H84.809
								c-6.559,0-11.877-5.195-11.877-11.603V84.34c0-6.408,5.319-11.603,11.877-11.603h95.017c6.56,0,11.877,5.195,11.877,11.603
								L191.702,165.555L191.702,165.555z"/>
							<g clip-path="url(#SVGID_10_)">
								<g opacity="0.2">
									<g>
										<defs>
											<rect id="SVGID_11_" x="72.931" y="66.937" width="118.771" height="104.418"/>
										</defs>
										<clipPath id="SVGID_12_">
											<use xlink:href="#SVGID_11_"  overflow="visible"/>
										</clipPath>
										<path clip-path="url(#SVGID_12_)" fill="#231F20" d="M191.702,159.753c0,6.407-5.317,11.603-11.877,11.603H84.809
											c-6.559,0-11.877-5.194-11.877-11.603V78.539c0-6.407,5.319-11.602,11.877-11.602h95.017
											c6.56,0,11.877,5.195,11.877,11.602L191.702,159.753L191.702,159.753z"/>
									</g>
								</g>
								<g>
									<defs>
										<rect id="SVGID_13_" x="37.3" y="26.33" width="190.034" height="185.632"/>
									</defs>
									<defs>
										<rect id="SVGID_14_" x="37.3" y="26.33" width="190.034" height="185.632"/>
									</defs>
									<defs>
										<rect id="SVGID_15_" x="37.3" y="26.33" width="190.034" height="185.632"/>
									</defs>
									<defs>
										<rect id="SVGID_16_" x="37.3" y="26.33" width="190.034" height="185.632"/>
									</defs>
									<defs>
										<rect id="SVGID_17_" x="37.3" y="26.33" width="190.034" height="185.632"/>
									</defs>
									<defs>
										<rect id="SVGID_18_" x="37.3" y="26.33" width="190.034" height="185.632"/>
									</defs>
									<defs>
										<rect id="SVGID_19_" x="37.3" y="26.33" width="190.034" height="185.632"/>
									</defs>
									<defs>
										<rect id="SVGID_20_" x="37.3" y="26.33" width="190.034" height="185.632"/>
									</defs>
									<defs>
										<rect id="SVGID_21_" x="37.3" y="26.33" width="190.034" height="185.632"/>
									</defs>
									<defs>
										<rect id="SVGID_22_" x="37.3" y="26.33" width="190.034" height="185.632"/>
									</defs>
									<defs>
										<rect id="SVGID_23_" x="37.3" y="26.33" width="190.034" height="185.632"/>
									</defs>
									<defs>
										<rect id="SVGID_24_" x="37.3" y="26.33" width="190.034" height="185.632"/>
									</defs>
									<defs>
										<rect id="SVGID_25_" x="37.3" y="26.33" width="190.034" height="185.632"/>
									</defs>
									<defs>
										<rect id="SVGID_26_" x="37.3" y="26.33" width="190.034" height="185.632"/>
									</defs>
									<defs>
										<rect id="SVGID_27_" x="37.3" y="26.33" width="190.034" height="185.632"/>
									</defs>
									<defs>
										<rect id="SVGID_28_" x="37.3" y="26.33" width="190.034" height="185.632"/>
									</defs>
									<defs>
										<rect id="SVGID_29_" x="37.3" y="26.33" width="190.034" height="185.632"/>
									</defs>
									<defs>
										<rect id="SVGID_30_" x="37.3" y="26.33" width="190.034" height="185.632"/>
									</defs>
									<defs>
										<rect id="SVGID_31_" x="37.3" y="26.33" width="190.034" height="185.632"/>
									</defs>
									<defs>
										<rect id="SVGID_32_" x="37.3" y="26.33" width="190.034" height="185.632"/>
									</defs>
									<clipPath id="SVGID_33_">
										<use xlink:href="#SVGID_13_"  overflow="visible"/>
									</clipPath>
									<clipPath id="SVGID_34_" clip-path="url(#SVGID_33_)">
										<use xlink:href="#SVGID_14_"  overflow="visible"/>
									</clipPath>
									<clipPath id="SVGID_35_" clip-path="url(#SVGID_34_)">
										<use xlink:href="#SVGID_15_"  overflow="visible"/>
									</clipPath>
									<clipPath id="SVGID_36_" clip-path="url(#SVGID_35_)">
										<use xlink:href="#SVGID_16_"  overflow="visible"/>
									</clipPath>
									<clipPath id="SVGID_37_" clip-path="url(#SVGID_36_)">
										<use xlink:href="#SVGID_17_"  overflow="visible"/>
									</clipPath>
									<clipPath id="SVGID_38_" clip-path="url(#SVGID_37_)">
										<use xlink:href="#SVGID_18_"  overflow="visible"/>
									</clipPath>
									<clipPath id="SVGID_39_" clip-path="url(#SVGID_38_)">
										<use xlink:href="#SVGID_19_"  overflow="visible"/>
									</clipPath>
									<clipPath id="SVGID_40_" clip-path="url(#SVGID_39_)">
										<use xlink:href="#SVGID_20_"  overflow="visible"/>
									</clipPath>
									<clipPath id="SVGID_41_" clip-path="url(#SVGID_40_)">
										<use xlink:href="#SVGID_21_"  overflow="visible"/>
									</clipPath>
									<clipPath id="SVGID_42_" clip-path="url(#SVGID_41_)">
										<use xlink:href="#SVGID_22_"  overflow="visible"/>
									</clipPath>
									<clipPath id="SVGID_43_" clip-path="url(#SVGID_42_)">
										<use xlink:href="#SVGID_23_"  overflow="visible"/>
									</clipPath>
									<clipPath id="SVGID_44_" clip-path="url(#SVGID_43_)">
										<use xlink:href="#SVGID_24_"  overflow="visible"/>
									</clipPath>
									<clipPath id="SVGID_45_" clip-path="url(#SVGID_44_)">
										<use xlink:href="#SVGID_25_"  overflow="visible"/>
									</clipPath>
									<clipPath id="SVGID_46_" clip-path="url(#SVGID_45_)">
										<use xlink:href="#SVGID_26_"  overflow="visible"/>
									</clipPath>
									<clipPath id="SVGID_47_" clip-path="url(#SVGID_46_)">
										<use xlink:href="#SVGID_27_"  overflow="visible"/>
									</clipPath>
									<clipPath id="SVGID_48_" clip-path="url(#SVGID_47_)">
										<use xlink:href="#SVGID_28_"  overflow="visible"/>
									</clipPath>
									<clipPath id="SVGID_49_" clip-path="url(#SVGID_48_)">
										<use xlink:href="#SVGID_29_"  overflow="visible"/>
									</clipPath>
									<clipPath id="SVGID_50_" clip-path="url(#SVGID_49_)">
										<use xlink:href="#SVGID_30_"  overflow="visible"/>
									</clipPath>
									<clipPath id="SVGID_51_" clip-path="url(#SVGID_50_)">
										<use xlink:href="#SVGID_31_"  overflow="visible"/>
									</clipPath>
									<clipPath id="SVGID_52_" clip-path="url(#SVGID_51_)">
										<use xlink:href="#SVGID_32_"  overflow="visible"/>
									</clipPath>
									<path clip-path="url(#SVGID_52_)" fill="#04BDAD" d="M191.702,153.952c0,6.405-5.317,11.603-11.877,11.603H84.809
										c-6.559,0-11.877-5.195-11.877-11.603V72.738c0-6.407,5.319-11.603,11.877-11.603h95.017
										c6.56,0,11.877,5.196,11.877,11.603L191.702,153.952L191.702,153.952z"/>
									<rect x="84.809" y="95.942" clip-path="url(#SVGID_52_)" fill="#4F5D73" width="35.631" height="34.806"/>
									<rect x="144.193" y="104.644" clip-path="url(#SVGID_52_)" fill="#4F5D73" width="35.632" height="2.9"/>
									<rect x="144.193" y="98.842" clip-path="url(#SVGID_52_)" fill="#4F5D73" width="35.632" height="2.9"/>
									<rect x="132.316" y="95.942" clip-path="url(#SVGID_52_)" fill="#4F5D73" width="8.908" height="11.602"/>
									<rect x="132.316" y="113.345" clip-path="url(#SVGID_52_)" fill="#4F5D73" width="47.509" height="2.9"/>
									<rect x="132.316" y="119.146" clip-path="url(#SVGID_52_)" fill="#4F5D73" width="47.509" height="2.9"/>
									<rect x="132.316" y="124.947" clip-path="url(#SVGID_52_)" fill="#4F5D73" width="47.509" height="2.901"/>
									<rect x="132.316" y="130.748" clip-path="url(#SVGID_52_)" fill="#4F5D73" width="47.509" height="2.9"/>
									<rect x="143.823" y="139.449" clip-path="url(#SVGID_52_)" fill="#4F5D73" width="36.002" height="2.9"/>
									<rect x="84.809" y="139.449" clip-path="url(#SVGID_52_)" fill="#4F5D73" width="35.631" height="2.9"/>
									<rect x="84.809" y="145.25" clip-path="url(#SVGID_52_)" fill="#4F5D73" width="35.631" height="2.9"/>
									<rect x="84.809" y="151.052" clip-path="url(#SVGID_52_)" fill="#4F5D73" width="35.631" height="2.9"/>
									<rect x="84.809" y="156.854" clip-path="url(#SVGID_52_)" fill="#4F5D73" width="35.631" height="2.899"/>
									<rect x="132.316" y="145.25" clip-path="url(#SVGID_52_)" fill="#4F5D73" width="47.509" height="2.9"/>
									<rect x="132.316" y="151.052" clip-path="url(#SVGID_52_)" fill="#4F5D73" width="47.509" height="2.9"/>
									<rect x="132.316" y="156.854" clip-path="url(#SVGID_52_)" fill="#4F5D73" width="47.509" height="2.899"/>
									<path clip-path="url(#SVGID_52_)" fill="#04BDAD" d="M114.501,107.543c0,3.205-2.658,5.801-5.938,5.801
										c-3.281,0-5.939-2.596-5.939-5.801c0-3.204,2.658-5.801,5.939-5.801C111.844,101.743,114.501,104.339,114.501,107.543"/>
									<rect x="84.809" y="72.738" clip-path="url(#SVGID_52_)" fill="#4F5D73" width="95.017" height="11.603"/>
									<path clip-path="url(#SVGID_52_)" fill="#04BDAD" d="M117.471,127.848v-7.002l-2.331-2.264
										c-1.445-1.402-3.789-1.402-5.234,0l-2.506,2.432l-5.724-5.557c-2.898-2.816-7.599-2.816-10.497,0l-3.4,3.299v9.093H117.471
										L117.471,127.848z"/>
								</g>
							</g>
						</g>
						<g>
							<g>
								<g>
									<defs>
										<polygon id="SVGID_53_" points="12.603,57.661 29.325,213.082 188.432,196.746 171.708,41.325 										"/>
									</defs>
									<clipPath id="SVGID_54_">
										<use xlink:href="#SVGID_53_"  overflow="visible"/>
									</clipPath>
									<g clip-path="url(#SVGID_54_)">
										<g id="Layer_4">
											<defs>
												<polygon id="SVGID_55_" points="171.708,41.325 188.432,196.746 29.325,213.082 12.603,57.661 												"/>
											</defs>
											<clipPath id="SVGID_56_">
												<use xlink:href="#SVGID_55_"  overflow="visible"/>
											</clipPath>
											<g clip-path="url(#SVGID_56_)">
												<g opacity="0.2">
													<g>
														<defs>
															<polygon id="SVGID_57_" points="43.954,83.906 54.014,177.4 150.1,167.537 140.04,74.041 															"/>
														</defs>
														<clipPath id="SVGID_58_">
															<use xlink:href="#SVGID_57_"  overflow="visible"/>
														</clipPath>
														<path clip-path="url(#SVGID_58_)" fill="#231F20" d="M64.432,174.534l11.82-14.259c0.125-0.15,0.212-0.318,0.32-0.479
															c8.15,4.876,17.913,7.313,28.126,6.263c24.675-2.533,42.638-24.207,40.044-48.308
															c-2.594-24.102-24.775-41.65-49.451-39.118c-24.674,2.533-42.639,24.204-40.045,48.307
															c1.054,9.795,5.381,18.474,11.759,25.191c-0.157,0.152-0.325,0.288-0.464,0.456L54.72,166.852
															c-1.087,1.306-1.524,2.924-1.356,4.479c0.167,1.552,0.938,3.045,2.28,4.106
															C58.324,177.559,62.262,177.154,64.432,174.534 M65.19,125.92c-2.021-18.776,11.925-35.599,31.146-37.572
															c19.224-1.974,36.443,11.649,38.464,30.426c2.021,18.778-11.924,35.599-31.147,37.572
															C84.431,158.318,67.21,144.698,65.19,125.92"/>
													</g>
												</g>
												<g>
													<defs>
														<polygon id="SVGID_59_" points="171.708,41.325 188.432,196.746 29.325,213.082 12.603,57.661 														"/>
													</defs>
													<defs>
														<polygon id="SVGID_60_" points="171.708,41.325 188.432,196.746 29.325,213.082 12.603,57.661 														"/>
													</defs>
													<defs>
														<polygon id="SVGID_61_" points="171.708,41.325 188.432,196.746 29.325,213.082 12.603,57.661 														"/>
													</defs>
													<defs>
														<polygon id="SVGID_62_" points="171.708,41.325 188.432,196.746 29.325,213.082 12.603,57.661 														"/>
													</defs>
													<clipPath id="SVGID_63_">
														<use xlink:href="#SVGID_59_"  overflow="visible"/>
													</clipPath>
													<clipPath id="SVGID_64_" clip-path="url(#SVGID_63_)">
														<use xlink:href="#SVGID_60_"  overflow="visible"/>
													</clipPath>
													<clipPath id="SVGID_65_" clip-path="url(#SVGID_64_)">
														<use xlink:href="#SVGID_61_"  overflow="visible"/>
													</clipPath>
													<clipPath id="SVGID_66_" clip-path="url(#SVGID_65_)">
														<use xlink:href="#SVGID_62_"  overflow="visible"/>
													</clipPath>
													<path clip-path="url(#SVGID_66_)" fill="#4F5D73" d="M53.657,175.102c-0.2-1.867,0.327-3.805,1.628-5.367
														l14.161-17.088c2.601-3.133,7.321-3.617,10.532-1.08c3.21,2.541,3.707,7.15,1.106,10.289l-14.163,17.084
														c-2.599,3.14-7.314,3.623-10.53,1.08C54.785,178.747,53.857,176.96,53.657,175.102"/>
													<path clip-path="url(#SVGID_66_)" fill="#FFFFFF" d="M139.771,118.263c2.021,18.778-11.926,35.6-31.146,37.572
														c-19.224,1.974-36.442-11.647-38.463-30.426c-2.02-18.776,11.923-35.598,31.146-37.572
														C120.53,85.863,137.753,99.486,139.771,118.263 M149.715,117.241c-2.593-24.102-24.779-41.65-49.452-39.117
														c-24.673,2.533-42.637,24.204-40.044,48.306c2.593,24.102,24.777,41.652,49.451,39.119
														S152.309,141.342,149.715,117.241"/>
												</g>
											</g>
										</g>
										<g id="Layer_2">
										</g>
									</g>
								</g>
							</g>
						</g>
					</g>
				</g>
			</g>
		</g>
	</g>
</g>
</svg>
