<svg width="147" height="52" xmlns="http://www.w3.org/2000/svg" xmlns:sketch="http://www.bohemiancoding.com/sketch/ns"><title>google_play</title><defs><linearGradient x1="60.1%" y1="91.98%" x2="33.5%" y2="-59.246%" id="a"><stop stop-color="#D7E69D" offset="0%"/><stop stop-color="#94C4AA" offset="44.56%"/><stop stop-color="#01A4B6" offset="100%"/></linearGradient><linearGradient x1="-31.986%" y1="-128.818%" x2="80.472%" y2="114.258%" id="b"><stop stop-color="#ED277B" offset="0%"/><stop stop-color="#EE2F7C" offset="1.92%"/><stop stop-color="#F7BD81" offset="70.39%"/><stop stop-color="#FEEB74" offset="100%"/></linearGradient><linearGradient x1="50.907%" y1="74.718%" x2="-.008%" y2="-29.439%" id="c"><stop stop-color="#89CFBD" offset="0%"/><stop stop-color="#7DBEBB" offset="9.07%"/><stop stop-color="#457CAC" offset="53.96%"/><stop stop-color="#1C5AA2" offset="85.23%"/><stop stop-color="#084D9F" offset="100%"/></linearGradient><linearGradient x1="119.297%" y1="35.68%" x2="-22.991%" y2="61.185%" id="d"><stop stop-color="#F04A2B" offset="0%"/><stop stop-color="#B54F6B" offset="47.04%"/><stop stop-color="#8B5191" offset="83.53%"/><stop stop-color="#7851A1" offset="100%"/></linearGradient></defs><g sketch:type="MSLayerGroup" fill="none"><rect fill="#3E404A" sketch:type="MSShapeGroup" width="147" height="52" rx="3"/><path d="M100.494 35.945c-.717.354-1.5.698-2.555.698-2.11 0-4.021-1.642-4.574-4.465l1.71-.134 5.222-2.109c-.159-.511-.447-1.465-1.557-2.198-.666-.421-1.487-.622-2.287-.622-2.286 0-5.089 1.688-5.089 5.132 0 1.664.688 3.572 2.266 4.683 1.134.821 2.246.867 2.956.867.667 0 1.417-.084 2.154-.42.244-.111.488-.268.733-.402l1.063-1.002c.103-.104-.042-.028-.042-.028zm-7.218-5.007c0-2.398 1.665-3.091 2.553-3.091 1.198 0 2.202 1.025 2.202 1.911 0 .311-.221.443-.646.598l-4.042 1.755c-.023-.399-.067-.797-.067-1.173zm-3.465 5.142l.005-13.167c.089-.813.294-1.067.983-1.483h-3.177l-1.663.838h1.729l.008 13.804v.518c0 .465-.088.533-.602 1.229h3.914l.821-.512-1.135-.114c-.729-.071-.883-.211-.883-1.113zm-3.459-8.678h-4.576c-1.2 0-2.71.18-3.977 1.223-.957.821-1.423 1.955-1.423 2.976 0 1.732 1.332 3.489 3.688 3.489.222 0 .468-.024.71-.047-.109.265-.223.489-.223.866 0 .688.356 1.109.668 1.513-.998.065-2.864.178-4.241 1.021-1.313.775-1.712 1.908-1.712 2.707 0 1.645 1.557 3.177 4.774 3.177 3.82 0 5.843-2.106 5.843-4.196 0-1.533-.889-2.288-1.865-3.111l-.802-.619c-.241-.199-.577-.466-.577-.957 0-.485.336-.798.622-1.086.936-.734 1.862-1.51 1.862-3.154 0-1.688-1.064-2.577-1.574-2.996h1.38l1.423-.806zm-1.958 13.595c0 1.376-1.133 2.397-3.265 2.397-2.373 0-3.908-1.135-3.908-2.709 0-1.578 1.422-2.108 1.914-2.289.929-.312 2.129-.354 2.33-.354.22 0 .328 0 .511.022 1.684 1.203 2.418 1.799 2.418 2.933zm-1.78-7.152c-.352.353-.95.623-1.507.623-1.908 0-2.775-2.468-2.775-3.955 0-.577.112-1.177.488-1.64.354-.446.978-.736 1.553-.736 1.847 0 2.799 2.488 2.799 4.085 0 .402-.044 1.111-.558 1.623zm-12.501-6.532c-3.377 0-5.752 2.488-5.752 5.396 0 2.488 1.889 5.238 5.419 5.238 3.622 0 5.643-2.773 5.643-5.395 0-2.683-2.045-5.239-5.31-5.239zm2.444 8.838c-.512.709-1.398 1.13-2.267 1.13-2.691 0-3.776-3.62-3.776-5.814 0-.957.154-1.934 1.022-2.711.532-.468 1.27-.754 2.002-.754 2.754 0 3.686 3.73 3.686 5.687 0 .864-.13 1.751-.667 2.462zm-14.262-8.838c-3.376 0-5.752 2.488-5.752 5.396 0 2.488 1.886 5.238 5.417 5.238 3.622 0 5.641-2.773 5.641-5.395 0-2.683-2.043-5.239-5.306-5.239zm2.443 8.838c-.513.709-1.398 1.13-2.265 1.13-2.687 0-3.776-3.62-3.776-5.814 0-.957.154-1.934 1.022-2.711.533-.468 1.263-.754 1.998-.754 2.752 0 3.686 3.73 3.686 5.687.001.864-.132 1.751-.665 2.462zm-14.897-2.67l3.144-.169v3.355c-.623.251-1.309.519-2.643.519-4.538 0-7.367-3.683-7.367-7.599 0-3.646 2.478-6.143 5.763-6.143 2.457 0 3.751 1.27 4.455 1.957l-.52.829.729-.163 1.729-1.643c-.456-.317-1.186-.856-2.746-1.295-.985-.269-2.066-.434-3.189-.434-5.31 0-8.41 3.745-8.41 7.786 0 3.309 2.188 7.536 7.931 7.536 1.147 0 2.23-.168 3.437-.357l2.978-.682v-2.539c0-.212.02-.814.042-1.005.041-.166.061-.207.206-.332l.54-.519h-4.412l-1.667.898zm64.311-7.081c-1.229 0-2.432.42-3.307 1.271v-1.095h-1.755v15.024h1.755v-5.109c.896.895 2.063 1.395 3.307 1.395 2.977 0 4.978-2.329 4.978-5.796 0-3.454-2.001-5.69-4.978-5.69zm-.189 9.839c-1.227 0-2.504-.989-3.117-1.946v-4.429c.604-.936 1.875-1.817 3.117-1.817 2.021 0 3.328 1.535 3.328 4.043 0 2.521-1.307 4.149-3.328 4.149zm6.512 1.516h1.756v-15.028h-1.756v15.028zm21.577-11.292l-3.549 8.596-3.585-8.596h-1.94l4.558 10.82-.764 1.732c-.393.905-.777 1.083-1.307 1.083-.219 0-.586-.058-.781-.145l-.365-.161-.32 1.705.271.083c.312.096.824.165 1.216.165 1.347 0 2.338-.717 2.943-2.132l5.584-13.151h-1.961v.001zm-9.394 9.828c-.042-.307-.062-.644-.062-1.031v-5.141c0-1.196-.419-2.129-1.241-2.772-.801-.631-1.863-.95-3.159-.95-1.298 0-2.369.323-3.183.961-.848.66-1.253 1.446-1.206 2.34l.128.354h1.678v-.315c0-.479.213-.875.65-1.203.471-.346 1.1-.52 1.869-.52.844 0 1.498.19 1.949.567.437.364.648.86.648 1.515v.979h-2.305c-1.459 0-2.666.312-3.592.925-.969.64-1.459 1.493-1.459 2.535 0 1.022.34 1.849 1.013 2.454.661.597 1.591.898 2.761.898.917 0 1.641-.179 2.418-.595.469-.25.875-.543 1.215-.879l.008.054c.042.271.098.596.176.963l.053.251h1.975l-.122-.407c-.096-.323-.167-.653-.212-.983zm-1.928-2.068c-.229.573-.654 1.049-1.266 1.418-.695.419-1.328.59-2.18.59-.649 0-1.16-.156-1.518-.468-.35-.301-.52-.691-.52-1.19 0-.523.278-.968.852-1.358.596-.408 1.373-.616 2.314-.616h2.316v1.624h.002z" fill="#fff" sketch:type="MSShapeGroup"/><g sketch:type="MSShapeGroup"><path d="M20.345 30.411l3.633-3.526h-.001l-3.632 3.526-11.591-11.254h-.001l11.592 11.255-11.611 11.271 11.611-11.271 3.649 3.541h.002l-3.65-3.543z" id="Shape"/><path d="M23.977 26.886l-14.153-7.555c-.4-.213-.772-.262-1.07-.172l11.592 11.253 3.631-3.526z" id="Shape" fill="url(#a)"/><path d="M23.996 33.954l4.831-2.58c.98-.526.98-1.379 0-1.901l-4.848-2.588-3.632 3.526 3.649 3.543z" id="Shape" fill="url(#b)"/><path d="M8.753 19.158c-.43.131-.709.554-.709 1.194l.003 20.143c0 .633.271 1.049.688 1.188l11.612-11.272-11.593-11.253z" fill="url(#c)"/><path d="M8.734 41.684c.302.099.68.052 1.09-.165l14.171-7.565-3.649-3.542-11.612 11.272z" fill="url(#d)"/></g><path d="M37.539 13.425c0 2.387 1.441 3.707 3.355 3.707.99 0 1.837-.374 2.332-.858v-3.168h-2.508v1.045h1.364v1.551c-.231.209-.627.319-1.034.319-1.441 0-2.2-.99-2.2-2.629 0-1.617.858-2.607 2.134-2.607.671 0 1.067.242 1.43.594l.704-.792c-.451-.462-1.155-.913-2.145-.913-1.947 0-3.432 1.397-3.432 3.751zm7.282 3.575h4.444v-1.078h-3.168v-2.123h2.585v-1.078h-2.585v-1.837h3.058v-1.078h-4.334v7.194zm7.37 0h1.276v-6.116h2.079v-1.078h-5.434v1.078h2.079v6.116zm6.809 0h1.276v-7.194h-1.276v7.194zm4.554 0h1.276v-6.116h2.079v-1.078h-5.434v1.078h2.079v6.116zm9.603.132c1.881 0 3.179-1.43 3.179-3.762 0-2.321-1.298-3.696-3.179-3.696-1.87 0-3.168 1.375-3.168 3.696 0 2.332 1.298 3.762 3.168 3.762zm0-1.111c-1.133 0-1.859-1.034-1.859-2.651 0-1.606.726-2.585 1.859-2.585s1.859.979 1.859 2.585c0 1.617-.726 2.651-1.859 2.651zm4.62.979h1.221v-3.146c0-.803-.11-1.672-.165-2.431h.044l.737 1.529 2.244 4.048h1.309v-7.194h-1.221v3.124c0 .803.11 1.716.165 2.453h-.044l-.737-1.529-2.244-4.048h-1.309v7.194z" fill="#fff" sketch:type="MSShapeGroup"/></g></svg>