<?xml version="1.0" encoding="utf-8"?>
<!-- Generator: Adobe Illustrator 16.0.0, SVG Export Plug-In . SVG Version: 6.00 Build 0)  -->
<!DOCTYPE svg PUBLIC "-//W3C//DTD SVG 1.1//EN" "http://www.w3.org/Graphics/SVG/1.1/DTD/svg11.dtd">
<svg version="1.1" id="Layer_1" xmlns="http://www.w3.org/2000/svg" xmlns:xlink="http://www.w3.org/1999/xlink" x="0px" y="0px"
	 width="245px" height="105px" viewBox="0 0 245 105" enable-background="new 0 0 245 105" xml:space="preserve">
<g id="Layer_3">
	<g opacity="0.26">
		<text transform="matrix(1.3631 0 0 1 51 77.75)" font-family="'ArialMT'" font-size="12">PANGMATAGALAN</text>
	</g>
	<g id="Layer_2">
		<ellipse opacity="0.54" cx="66.25" cy="46.991" rx="15.917" ry="16.165"/>
		<polygon opacity="0.54" points="17,31.333 13.167,62.834 21.667,62.834 23.667,48 29.333,62.834 36.167,47.084 38.333,62.167 
			45.833,62.167 41.5,31.333 35,31.333 29.5,44.833 23.833,31.333 		"/>
		<polygon opacity="0.54" points="96,31.29 86.167,31.29 86.167,39.019 91.875,39.019 92.063,62.785 100.125,62.785 100.125,39.144 
			105.938,39.144 105.938,31.29 		"/>
		<polygon opacity="0.54" points="196.834,31.196 187,31.196 187,38.925 192.709,38.925 192.896,62.691 200.959,62.691 
			200.959,39.05 206.771,39.05 206.771,31.196 		"/>
		<polygon opacity="0.54" points="148.082,31.346 148.082,62.264 164.5,62.264 167.875,54.93 155.75,54.846 155.75,31.346 		"/>
		<rect x="173" y="31.393" opacity="0.54" width="7.75" height="30.917"/>
		<polygon opacity="0.54" points="212.396,31.44 212.396,62.354 229.229,62.354 232.439,55.313 219.371,55.313 219.313,50.441 
			226.313,50.441 226.313,43.443 219.396,43.443 219.396,38.605 229.229,38.605 229.229,31.44 		"/>
		<ellipse fill="#FFFFFF" cx="66.417" cy="46.711" rx="7.417" ry="8.25"/>
		<ellipse opacity="0.54" cx="125.625" cy="46.665" rx="15.916" ry="16.165"/>
		<ellipse fill="#FFFFFF" cx="125.792" cy="46.758" rx="7.417" ry="8.25"/>
	</g>
</g>
<g id="r">
	<g id="Layer_5" opacity="0.54">
		<ellipse cx="236.813" cy="29.281" rx="5.25" ry="5.094"/>
	</g>
	<ellipse fill="#FFFFFF" cx="236.782" cy="29.281" rx="4.343" ry="4.219"/>
	<path opacity="0.54" d="M234.626,27.188v4.252h0.916v-1.648h1.104l1.582,1.648h1.114l-1.516-1.659c0,0,0.956-0.178,1.233-0.5
		c0.065-0.076,0.217-0.072,0.267-0.938c0.021-0.375-0.209-0.699-0.392-0.859c-0.226-0.2-0.629-0.286-0.983-0.306
		S234.626,27.188,234.626,27.188z"/>
	<path fill="#FFFFFF" d="M235.578,27.859h2.609c0,0,0.405,0.188,0.405,0.609c0,0.375-0.28,0.547-0.405,0.594s-2.609,0-2.609,0
		V27.859z"/>
</g>
</svg>
