<?xml version="1.0" encoding="utf-8"?>
<!-- Generator: Adobe Illustrator 16.0.0, SVG Export Plug-In . SVG Version: 6.00 Build 0)  -->
<!DOCTYPE svg PUBLIC "-//W3C//DTD SVG 1.1//EN" "http://www.w3.org/Graphics/SVG/1.1/DTD/svg11.dtd">
<svg version="1.1" id="Layer_1" xmlns="http://www.w3.org/2000/svg" xmlns:xlink="http://www.w3.org/1999/xlink" x="0px" y="0px"
	 width="250px" height="250px" viewBox="0 0 250 250" enable-background="new 0 0 250 250" xml:space="preserve">
<g id="Layer_3">
	<g>
		<circle fill="#04BDAD" cx="178.292" cy="155.397" r="23.497"/>
		<path fill="#4F6366" d="M166.543,155.396c0-6.486,5.262-11.748,11.749-11.748c6.485,0,11.749,5.262,11.749,11.748
			c0,6.485-5.264,11.748-11.749,11.748C171.805,167.146,166.543,161.883,166.543,155.396z"/>
	</g>
	<rect x="68.636" y="112.318" fill="#04BDAD" width="105.738" height="78.325"/>
	<ellipse fill="#04BDAD" cx="121.507" cy="112.318" rx="52.871" ry="19.582"/>
	<ellipse fill="#04BDAD" cx="121.507" cy="190.644" rx="52.871" ry="19.581"/>
	<ellipse fill="#4F6366" cx="121.505" cy="110.359" rx="41.121" ry="9.791"/>
	<path fill="#777777" d="M98.857,41.222c-0.69,3.981-0.985,7.209,0.08,11.158c0.007,0.181-0.003-0.046,0,0
		c0.837,2.994,2.287,5.131,4.409,7.403c2.533,2.704,4.136,6.862,4.274,10.511c0.25,6.486-3.4,12.499-8.763,15.966
		c0.625-2.146,1.121-4.413,0.937-6.654c-0.135-1.649-0.6-3.558-1.103-4.699c-3.184-7.253-8.284-11.11-8.339-18.46
		C90.4,50.271,93.168,44.212,98.857,41.222z"/>
	<path fill="#777777" d="M142.23,48.389c-0.504,2.903-0.726,5.262,0.059,8.148c0,0.137,0-0.031,0,0
		c0.611,2.186,1.665,3.745,3.218,5.408c1.854,1.977,3.019,5.009,3.124,7.677c0.18,4.738-2.484,9.125-6.4,11.661
		c0.455-1.563,0.818-3.223,0.684-4.858c-0.098-1.204-0.438-2.6-0.805-3.431c-2.323-5.299-6.051-8.117-6.092-13.484
		C136.052,54.997,138.074,50.574,142.23,48.389z"/>
</g>
<g id="Layer_4">
</g>
<g id="Layer_2">
</g>
</svg>
