<?xml version="1.0" encoding="utf-8"?>
<!-- Generator: Adobe Illustrator 16.0.0, SVG Export Plug-In . SVG Version: 6.00 Build 0)  -->
<!DOCTYPE svg PUBLIC "-//W3C//DTD SVG 1.1//EN" "http://www.w3.org/Graphics/SVG/1.1/DTD/svg11.dtd">
<svg version="1.1" id="Petron" xmlns="http://www.w3.org/2000/svg" xmlns:xlink="http://www.w3.org/1999/xlink" x="0px" y="0px"
	 width="700px" height="300px" viewBox="0 0 700 300" enable-background="new 0 0 700 300" xml:space="preserve">
<path opacity="0.54" d="M155,106.833v97h29.833v-19c0,0-0.167-7.834,11.333-12.667c0,0,6-2.334,16-2.167c0,0,11.583,1.252,27-14.666
	c0,0,9.333-6.167,8.833-25.5c0,0-0.166-12.5-5.333-19.833c0,0-9.334-13.667-22.167-15.167h-52.167
	C168.333,94.833,156,97.167,155,106.833z"/>
<path opacity="0.54" d="M327.497,111.167v22.667H283.33c0,0-3.833,1.167-4,5v8.333h42.42l-0.083,18.75H279.33v8.25
	c0,0,0.253,3.917,4.67,6.417h42.583l0.083,23.25h-56.5c0,0-14.833-6.174-15.75-25.674v-48.973c0,0,2.333-16.853,16.5-18.02H327.497z
	"/>
<polygon opacity="0.54" points="333.125,111.167 333.125,133.75 359,133.75 359,203.834 384.875,203.834 384.875,134 
	411.375,133.875 411.375,111.167 "/>
<path opacity="0.54" d="M418.666,120.25c0,0,0.584-7.083,10.334-8.583h47.416c0,0,21.917,2.416,21.417,27.417
	c0,0,0.417,14.25-9.583,20.167l-11.167,6.916l23.084,37.668h-29.5l-22-35.002c0,0-1.334-7.164,0.166-11.082
	c0,0,2.5-5.335,14.25-5.168c0,0,7.918-0.667,7.834-8.75c0,0,0.25-8.583-4.5-9.417l-24.25-0.332l0.083,69.75h-23.584V120.25
	L418.666,120.25z"/>
<path opacity="0.54" d="M602.125,113.25v90.5h24.5v-46.125c0,0-0.375-3.625,6.25,7.5c0,0,23.75,35.5,25.375,36.625
	c0,0,2.5,1.875,4.5,2h18.5c0,0,1.875,0.625,1.875-3.375V111H659.25v47.625c0,0-1.25,0.625-6-8.625c0,0-16.25-31.75-19.375-34.5
	c0,0-1.25-3.375-8.125-3.75L604.375,111C604.375,111,602.125,112,602.125,113.25z"/>
<ellipse opacity="0.54" cx="549.239" cy="158.166" rx="45.417" ry="47.167"/>
<ellipse fill="#FFFFFF" cx="549.405" cy="157.668" rx="20.25" ry="25.499"/>
<path fill="#FFFFFF" d="M185.125,119v31h1.125c0,0,3.145-3.625,15.26-3.625c0,0,16.99-1.375,16.74-14.25
	c0,0,2.375-13.125-18.875-13.125S185.125,119,185.125,119z"/>
<rect x="19.333" y="93.667" opacity="0.54" width="111.333" height="110.167"/>
<path opacity="0.26" d="M35.938,93.667c0,0,44.188,7.352,43.188,33.519c0,0,1,15.167-23.667,27.5c0,0-27.167,19.834-32.167,34.666
	c0,0-2.77,8.779-3.104,10.273c-0.014,0.061-0.967,4.21-0.854,4.209c4.24-0.021,14.167,0,14.167,0s10.417-21.148,30.167-29.732
	c0,0,5.791-2.436,13.294-6.485c0,0,36.081-16.765,40.831-27.638c0,0,10-20.125-7.375-32.25c0,0-16.125-12.375-30.625-13.542
	c-11.61-0.934-33.315-0.779-41.229-0.519C36.593,93.732,35.938,93.667,35.938,93.667z"/>
<path opacity="0.26" d="M19.333,93.667c0,0,36.151,9.17,36.667,33.285c0,0,1.377,10.698-12.222,22.417
	c0,0-20.316,14.945-24.445,33.965V93.667z"/>
</svg>
