<?xml version="1.0" encoding="utf-8"?>
<!-- Generator: Adobe Illustrator 16.0.0, SVG Export Plug-In . SVG Version: 6.00 Build 0)  -->
<!DOCTYPE svg PUBLIC "-//W3C//DTD SVG 1.1//EN" "http://www.w3.org/Graphics/SVG/1.1/DTD/svg11.dtd">
<svg version="1.1" id="Layer_1" xmlns="http://www.w3.org/2000/svg" xmlns:xlink="http://www.w3.org/1999/xlink" x="0px" y="0px"
	 width="230.736px" height="326.348px" viewBox="0 0 230.736 326.348" enable-background="new 0 0 230.736 326.348"
	 xml:space="preserve">
<g>
	<path fill="#4BEFDF" d="M230.737,77.583c0-5.5-3.182-13.182-7.07-17.071l-53.438-53.44C166.338,3.182,158.656,0,153.156,0H77.581
		c-5.5,0-13.183,3.182-17.071,7.071L7.071,60.512C3.182,64.401,0,72.083,0,77.583v75.575c0,5.5,0.007,10.007,0.017,10.016
		c0.009,0.009,0.009,0.016,0,0.016c-0.01,0-0.017,4.5-0.017,10v75.574c0,5.5,3.183,13.182,7.07,17.071l53.438,53.441
		c3.89,3.89,7.068,2.569,7.066-2.931l-0.039-75.623c-0.002-5.5-0.004-14.5-0.003-20c0,0,0.016-78.942,0.016-105.354
		s21.41-47.819,47.819-47.819c26.408,0,47.817,21.408,47.817,47.819c0,18.258-0.027,105.371-0.027,105.371
		c-0.002,5.5,3.18,6.816,7.068,2.931l53.438-53.414c3.891-3.888,7.064-7.069,7.058-7.069c-0.008,0-0.01-0.007,0-0.016
		c0.009-0.009,0.016-4.516,0.016-10.016V77.583L230.737,77.583z"/>
</g>
</svg>
