<?xml version="1.0" encoding="utf-8"?>
<!-- Generator: Adobe Illustrator 16.0.0, SVG Export Plug-In . SVG Version: 6.00 Build 0)  -->
<!DOCTYPE svg PUBLIC "-//W3C//DTD SVG 1.1//EN" "http://www.w3.org/Graphics/SVG/1.1/DTD/svg11.dtd">
<svg version="1.1" id="Layer_1" xmlns="http://www.w3.org/2000/svg" xmlns:xlink="http://www.w3.org/1999/xlink" x="0px" y="0px"
	 width="250px" height="250px" viewBox="0 0 250 250" enable-background="new 0 0 250 250" xml:space="preserve">
<g>
	<g>
		<g>
			<defs>
				<polyline id="SVGID_1_" points="210.262,33.785 30,33.785 30,214.046 				"/>
			</defs>
			<clipPath id="SVGID_2_">
				<use xlink:href="#SVGID_1_"  overflow="visible"/>
			</clipPath>
		</g>
	</g>
	<g>
		<g>
			<defs>
				<rect id="SVGID_3_" x="45.098" y="25.663" width="191.663" height="191.663"/>
			</defs>
			<clipPath id="SVGID_4_">
				<use xlink:href="#SVGID_3_"  overflow="visible"/>
			</clipPath>
			<g clip-path="url(#SVGID_4_)">
				<g>
					<defs>
						<rect id="SVGID_5_" x="45.098" y="25.663" width="191.663" height="191.663"/>
					</defs>
					<clipPath id="SVGID_6_">
						<use xlink:href="#SVGID_5_"  overflow="visible"/>
					</clipPath>
					<g clip-path="url(#SVGID_6_)">
						<g opacity="0.2">
							<g>
								<defs>
									<rect id="SVGID_7_" x="81.036" y="67.588" width="83.851" height="119.79"/>
								</defs>
								<clipPath id="SVGID_8_">
									<use xlink:href="#SVGID_7_"  overflow="visible"/>
								</clipPath>
								<path clip-path="url(#SVGID_8_)" fill="#231F20" d="M128.951,94.541V67.588H90.02c-4.962,0-8.983,4.021-8.983,8.984v101.821
									c0,4.963,4.021,8.984,8.983,8.984h65.884c4.963,0,8.981-4.021,8.981-8.984v-74.869h-26.952
									C132.973,103.525,128.951,99.504,128.951,94.541"/>
							</g>
						</g>
						<g>
							<defs>
								<rect id="SVGID_9_" x="45.098" y="25.663" width="191.663" height="191.663"/>
							</defs>
							<defs>
								<rect id="SVGID_10_" x="45.098" y="25.663" width="191.663" height="191.663"/>
							</defs>
							<clipPath id="SVGID_11_">
								<use xlink:href="#SVGID_9_"  overflow="visible"/>
							</clipPath>
							<clipPath id="SVGID_12_" clip-path="url(#SVGID_11_)">
								<use xlink:href="#SVGID_10_"  overflow="visible"/>
							</clipPath>
							<path clip-path="url(#SVGID_12_)" fill="#04BDAD" d="M155.902,61.6h-26.951H90.02c-4.962,0-8.983,4.021-8.983,8.983v74.867
								v26.952c0,4.963,4.021,8.983,8.983,8.983h26.952h38.932c4.963,0,8.981-4.021,8.981-8.983V97.535V70.583
								C164.887,65.621,160.866,61.6,155.902,61.6"/>
							<g clip-path="url(#SVGID_12_)">
								<g opacity="0.2">
									<g>
										<defs>
											<rect id="SVGID_13_" x="93.013" y="82.562" width="29.948" height="5.989"/>
										</defs>
										<clipPath id="SVGID_14_">
											<use xlink:href="#SVGID_13_"  overflow="visible"/>
										</clipPath>
										<rect x="93.013" y="82.562" clip-path="url(#SVGID_14_)" fill="#231F20" width="29.948" height="5.989"/>
									</g>
								</g>
								<g>
									<defs>
										<rect id="SVGID_15_" x="45.098" y="25.663" width="191.663" height="191.663"/>
									</defs>
									<clipPath id="SVGID_16_">
										<use xlink:href="#SVGID_15_"  overflow="visible"/>
									</clipPath>
									<g clip-path="url(#SVGID_16_)">
										<g opacity="0.2">
											<g>
												<defs>
													<rect id="SVGID_17_" x="93.013" y="130.479" width="59.894" height="5.988"/>
												</defs>
												<clipPath id="SVGID_18_">
													<use xlink:href="#SVGID_17_"  overflow="visible"/>
												</clipPath>
												<rect x="93.013" y="130.479" clip-path="url(#SVGID_18_)" fill="#231F20" width="59.894" height="5.988"/>
											</g>
										</g>
										<g>
											<defs>
												<rect id="SVGID_19_" x="45.098" y="25.663" width="191.663" height="191.663"/>
											</defs>
											<clipPath id="SVGID_20_">
												<use xlink:href="#SVGID_19_"  overflow="visible"/>
											</clipPath>
											<g clip-path="url(#SVGID_20_)">
												<g opacity="0.2">
													<g>
														<defs>
															<rect id="SVGID_21_" x="93.013" y="115.504" width="59.894" height="5.989"/>
														</defs>
														<clipPath id="SVGID_22_">
															<use xlink:href="#SVGID_21_"  overflow="visible"/>
														</clipPath>
														<rect x="93.013" y="115.504" clip-path="url(#SVGID_22_)" fill="#231F20" width="59.894" height="5.989"/>
													</g>
												</g>
												<g>
													<defs>
														<rect id="SVGID_23_" x="45.098" y="25.663" width="191.663" height="191.663"/>
													</defs>
													<clipPath id="SVGID_24_">
														<use xlink:href="#SVGID_23_"  overflow="visible"/>
													</clipPath>
													<g clip-path="url(#SVGID_24_)">
														<g opacity="0.2">
															<g>
																<defs>
																	<rect id="SVGID_25_" x="93.013" y="100.53" width="59.894" height="5.99"/>
																</defs>
																<clipPath id="SVGID_26_">
																	<use xlink:href="#SVGID_25_"  overflow="visible"/>
																</clipPath>
																<rect x="93.013" y="100.53" clip-path="url(#SVGID_26_)" fill="#231F20" width="59.894" height="5.99"/>
															</g>
														</g>
														<g>
															<defs>
																<rect id="SVGID_27_" x="45.098" y="25.663" width="191.663" height="191.663"/>
															</defs>
															<clipPath id="SVGID_28_">
																<use xlink:href="#SVGID_27_"  overflow="visible"/>
															</clipPath>
															<g clip-path="url(#SVGID_28_)">
																<g opacity="0.2">
																	<g>
																		<defs>
																			<rect id="SVGID_29_" x="93.013" y="145.45" width="59.894" height="5.989"/>
																		</defs>
																		<clipPath id="SVGID_30_">
																			<use xlink:href="#SVGID_29_"  overflow="visible"/>
																		</clipPath>
																		<rect x="93.013" y="145.45" clip-path="url(#SVGID_30_)" fill="#231F20" width="59.894" height="5.989"/>
																	</g>
																</g>
																<g>
																	<defs>
																		<rect id="SVGID_31_" x="45.098" y="25.663" width="191.663" height="191.663"/>
																	</defs>
																	<clipPath id="SVGID_32_">
																		<use xlink:href="#SVGID_31_"  overflow="visible"/>
																	</clipPath>
																	<g clip-path="url(#SVGID_32_)">
																		<g opacity="0.2">
																			<g>
																				<defs>
																					<rect id="SVGID_33_" x="93.013" y="160.425" width="59.894" height="5.989"/>
																				</defs>
																				<clipPath id="SVGID_34_">
																					<use xlink:href="#SVGID_33_"  overflow="visible"/>
																				</clipPath>
																				<rect x="93.013" y="160.425" clip-path="url(#SVGID_34_)" fill="#231F20" width="59.894" height="5.989"/>
																			</g>
																		</g>
																		<g id="Layer_3">
																			<defs>
																				<rect id="SVGID_35_" x="45.098" y="25.663" width="191.663" height="191.663"/>
																			</defs>
																			<clipPath id="SVGID_36_">
																				<use xlink:href="#SVGID_35_"  overflow="visible"/>
																			</clipPath>
																			<g clip-path="url(#SVGID_36_)">
																				<g opacity="0.2">
																					<g>
																						<defs>
																							<rect id="SVGID_37_" x="106.409" y="67.331" width="106.396" height="106.396"/>
																						</defs>
																						<clipPath id="SVGID_38_">
																							<use xlink:href="#SVGID_37_"  overflow="visible"/>
																						</clipPath>
																						<path clip-path="url(#SVGID_38_)" fill="#231F20" d="M210.172,91.138l-21.176-21.175
																							c-3.512-3.51-9.197-3.51-12.707,0L165.704,80.55l-2.117,2.121l-48.709,48.7l-5.644,28.232l-2.825,14.121
																							l14.119-2.824l28.234-5.645l48.701-48.706l2.118-2.117l10.591-10.587
																							C213.68,100.336,213.68,94.649,210.172,91.138"/>
																					</g>
																				</g>
																				<g>
																					<defs>
																						<rect id="SVGID_39_" x="45.098" y="25.663" width="191.663" height="191.663"/>
																					</defs>
																					<defs>
																						
																							<rect id="SVGID_40_" x="34.109" y="18.132" transform="matrix(-0.7071 -0.7071 0.7071 -0.7071 141.2373 286.4271)" width="191.661" height="191.661"/>
																					</defs>
																					<defs>
																						
																							<rect id="SVGID_41_" x="47.699" y="14.984" transform="matrix(-0.7071 -0.7071 0.7071 -0.7071 166.6617 290.6631)" width="191.661" height="191.661"/>
																					</defs>
																					<defs>
																						
																							<rect id="SVGID_42_" x="59.509" y="7.607" transform="matrix(-0.7071 -0.7071 0.7071 -0.7071 192.0405 286.4211)" width="191.661" height="191.662"/>
																					</defs>
																					<defs>
																						<rect id="SVGID_43_" x="45.098" y="25.663" width="191.663" height="191.663"/>
																					</defs>
																					<defs>
																						<rect id="SVGID_44_" x="45.098" y="25.663" width="191.663" height="191.663"/>
																					</defs>
																					<clipPath id="SVGID_45_">
																						<use xlink:href="#SVGID_39_"  overflow="visible"/>
																					</clipPath>
																					<clipPath id="SVGID_46_" clip-path="url(#SVGID_45_)">
																						<use xlink:href="#SVGID_40_"  overflow="visible"/>
																					</clipPath>
																					<clipPath id="SVGID_47_" clip-path="url(#SVGID_46_)">
																						<use xlink:href="#SVGID_41_"  overflow="visible"/>
																					</clipPath>
																					<clipPath id="SVGID_48_" clip-path="url(#SVGID_47_)">
																						<use xlink:href="#SVGID_42_"  overflow="visible"/>
																					</clipPath>
																					<clipPath id="SVGID_49_" clip-path="url(#SVGID_48_)">
																						<use xlink:href="#SVGID_43_"  overflow="visible"/>
																					</clipPath>
																					<clipPath id="SVGID_50_" clip-path="url(#SVGID_49_)">
																						<use xlink:href="#SVGID_44_"  overflow="visible"/>
																					</clipPath>
																					<path clip-path="url(#SVGID_50_)" fill="#C75C5C" d="M197.467,110.819c-3.509,3.509-9.199,3.509-12.705,0
																						l-21.18-21.179c-3.507-3.509-3.507-9.196,0-12.705l12.707-12.704c3.51-3.51,9.199-3.51,12.707,0l21.179,21.176
																						c3.505,3.506,3.505,9.195,0,12.702L197.467,110.819z"/>
																					
																						<rect x="138.536" y="68.527" transform="matrix(-0.7071 -0.7071 0.7071 -0.7071 172.8585 280.5222)" clip-path="url(#SVGID_50_)" fill="#E0995E" width="11.978" height="71.871"/>
																					
																						<rect x="143.14" y="80.354" transform="matrix(-0.7071 -0.7071 0.7071 -0.7071 180.4573 313.3197)" clip-path="url(#SVGID_50_)" fill="#F5CF87" width="23.96" height="77.862"/>
																					
																						<rect x="163.936" y="93.939" transform="matrix(-0.7071 -0.7071 0.7071 -0.7071 198.2438 341.8667)" clip-path="url(#SVGID_50_)" fill="#E0995E" width="11.977" height="71.874"/>
																					<polygon clip-path="url(#SVGID_50_)" fill="#4F5D73" points="106.409,167.993 120.528,165.17 109.234,153.874 
																																											"/>
																					<polygon clip-path="url(#SVGID_50_)" fill="#FFFFFF" points="114.877,125.641 109.234,153.874 120.528,165.17 
																						148.762,159.525 144.527,155.289 144.527,146.818 127.588,146.818 127.588,129.874 119.113,129.874 
																																											"/>
																				</g>
																			</g>
																		</g>
																		<g id="Layer_4">
																		</g>
																		<g id="Layer_2">
																		</g>
																	</g>
																</g>
															</g>
														</g>
													</g>
												</g>
											</g>
										</g>
									</g>
								</g>
							</g>
						</g>
					</g>
				</g>
			</g>
		</g>
	</g>
</g>
</svg>
