<?xml version="1.0" encoding="utf-8"?>
<!-- Generator: Adobe Illustrator 16.0.0, SVG Export Plug-In . SVG Version: 6.00 Build 0)  -->
<!DOCTYPE svg PUBLIC "-//W3C//DTD SVG 1.1//EN" "http://www.w3.org/Graphics/SVG/1.1/DTD/svg11.dtd">
<svg version="1.1" id="Rapide" xmlns="http://www.w3.org/2000/svg" xmlns:xlink="http://www.w3.org/1999/xlink" x="0px" y="0px"
	 width="250px" height="100px" viewBox="225 100 250 100" enable-background="new 225 100 250 100" xml:space="preserve">
<path opacity="0.54" enable-background="new    " d="M264.842,112.266l-9.034,39.033h9.952l3.529-14.258l5.435-0.071l7.341,14.329
	h11.434l-8.893-16.446c0,0,6.565-2.471,8.399-6.141c0,0,2.376-2.33,2.188-6.657c0,0,0.078-5.458-4.092-7.483
	c0,0-2.447-2.025-7.434-2.306C278.679,111.985,264.842,112.266,264.842,112.266z"/>
<path opacity="0.54" enable-background="new    " d="M300.063,129.559l1.48-7.057c0,0,11.576-2.895,17.647-1.202
	c0,0,5.787,1.021,6.846,3.864c0,0,0.988,1.29,0.777,4.395l-4.871,21.74h-9.387l0.897-3.034c0,0-2.38,1.55-4.074,2.256
	c-1.694,0.707-6.281,1.767-9.316,1.202c-3.036-0.566-5.294-2.119-5.646-5.437c-0.354-3.316,0.07-5.364,1.411-7.27
	c1.342-1.904,4.447-5.574,13.481-6.422c0,0,6.635-0.564,7.2-0.564c0.565,0,0.988-2.4-0.565-3.742c0,0-3.6-1.763-9.952-0.493
	c0,0-3.528,0.988-4.235,1.27C301.051,129.348,300.063,129.559,300.063,129.559z"/>
<path opacity="0.54" enable-background="new    " d="M335.071,121.937l-9.739,40.091h9.739l2.753-12.069
	c0,0,7.623,3.459,13.55,0.706c0,0,2.401-0.496,6.142-4.731c0,0,3.388-2.398,4.942-11.15c0,0,0.635-4.234,0-7.27
	c0,0-0.354-2.542-2.401-4.236c0,0-2.468-3.034-7.481-2.187c0,0-2.612,0.141-5.86,1.905l-2.681,1.553l-0.423,0.353l0.423-3.035
	L335.071,121.937z"/>
<polygon opacity="0.54" enable-background="new    " points="369.728,121.773 379.279,121.773 372.362,151.322 362.74,151.322 "/>
<path opacity="0.54" enable-background="new    " d="M416.595,110.43l-9.365,40.892h-9.362l0.469-2.965c0,0-3.575,2.307-4.61,2.729
	c0,0-4.752,2.07-8.658,0.473c0,0-3.646-2.377-4.375-3.999c0,0-1.554-1.838-1.413-8.519c0,0,0.707-5.882,2.398-8.141
	c0,0,2.544-4.047,4.519-5.694c0,0,3.059-3.105,6.07-3.623c0,0,3.577-1.272,8.047-0.048l3.765,1.601l0.377,0.234l3.011-12.94H416.595
	L416.595,110.43z"/>
<path opacity="0.54" enable-background="new    " d="M423.534,138.217l22.187,0.024c0,0,1.836-5.317,0.896-10.305
	c0,0-0.989-5.129-7.532-6.54c0,0-8.373-2.259-14.867,1.411c0,0-7.482,3.623-9.411,11.857c0,0-2.258,8.846,2.822,13.505
	c0,0,3.105,3.894,11.53,3.993c0,0,10.022,0.196,13.222-2.536l1.835-7.623l-0.472,0.096c0,0-6.21,2.774-8.704,3.06
	c0,0-4.848,0.938-7.857-0.801c0,0-2.305-1.224-3.06-3.529c0,0-0.289-1.008-0.47-1.647
	C423.486,138.594,423.534,138.217,423.534,138.217z"/>
<g id="Auto" opacity="0.54">
	<text transform="matrix(1.0661 0 0 1 254.1279 183.04)" font-family="'Arial-BoldMT'" font-size="14.6018">AUTO SERVICE EXPERTS</text>
</g>
<g id="Layer_4">
	<path fill="#FFFFFF" d="M342.412,129.7l-3.423,14.858c0,0,3.917,1.128,6.034,0.564c0,0,3.459-0.864,5.506-3.917
		c0,0,1.2-1.448,1.765-4.659c0,0,0.565-3.194,0.282-5.25c0,0-0.318-2.727-3.671-3.15c0,0-2.929-0.352-4.87,0.706L342.412,129.7z"/>
	<path fill="#FFFFFF" d="M315.591,137.559l-1.27,5.669c0,0-2.206,1.628-4.765,2.157c-2.345,0.486-4.88-0.454-5.21-1.075
		c0,0-0.4-0.37-0.479-1.183c-0.063-0.639,0.246-1.182,0.455-1.645c0,0,1.264-2.236,3.953-2.935c0,0,3.341-1.012,5.717-0.99
		L315.591,137.559L315.591,137.559z"/>
	<path fill="#FFFFFF" d="M273.313,119.562l-2.542,10.328l7.104-0.094c0,0,4.276-0.606,5.413-3.154c0,0,0.823-1.441,0.493-4.398
		c0,0,0.122-2.107-3.387-2.589c0,0-3.317-0.188-5.435-0.188L273.313,119.562z"/>
	<path fill="#FFFFFF" d="M402.831,128.877l-3.435,14.02c0,0-2.659,2.238-5.223,2.166c0,0-2.496,0.001-3.859-1.976
		c0,0-0.921-1.083-0.895-2.425c0,0-0.389-1.574,0.282-4.75c0,0,0.564-4.024,4.354-6.73c0,0,1.952-1.647,4.824-1.316
		c0,0,1.763-0.043,3.032,0.471L402.831,128.877z"/>
	<path fill="#FFFFFF" d="M424.711,132.736h12.682c0,0,0.165-2.188-0.095-2.955c0,0-0.492-2.527-3.34-2.809
		c0,0-3.201-0.519-5.177,0.94c0,0-1.813,1.224-3.011,2.848c0,0-0.644,0.847-0.893,1.505L424.711,132.736z"/>
</g>
<g id="Layer_7">
	<polygon opacity="0.54" enable-background="new    " points="421.252,110.43 419.275,118.525 446.884,110.43 	"/>
	<g id="Layer_8" opacity="0.26">
		<polygon points="419.275,118.525 420.336,117.383 440.523,111.491 446.884,110.43 		"/>
	</g>
</g>
</svg>
