<?xml version="1.0" encoding="utf-8"?>
<!-- Generator: Adobe Illustrator 16.0.0, SVG Export Plug-In . SVG Version: 6.00 Build 0)  -->
<!DOCTYPE svg PUBLIC "-//W3C//DTD SVG 1.1//EN" "http://www.w3.org/Graphics/SVG/1.1/DTD/svg11.dtd">
<svg version="1.1" id="Layer_1" xmlns="http://www.w3.org/2000/svg" xmlns:xlink="http://www.w3.org/1999/xlink" x="0px" y="0px"
	 width="250px" height="250px" viewBox="0 0 250 250" enable-background="new 0 0 250 250" xml:space="preserve">
<g id="Layer_3">
	<circle fill="#4F6366" cx="132.414" cy="54.773" r="12.815"/>
	<path fill="#04BDAD" d="M172.915,92.744c-3.3-19.797-20.429-34.31-40.501-34.31c-20.075,0-37.202,14.513-40.505,34.31l-3.357,20.16
		c-1.248,7.478-4.538,14.465-9.515,20.189l-11.049,12.712h132.521l-12.521-12.035c-6.366-6.121-10.59-14.136-12.047-22.851
		L172.915,92.744z"/>
	<path fill="#04BDAD" d="M134.244,128.003c-38.416,0.007-69.567,11.472-69.567,25.631c0,14.163,31.151,25.632,69.567,25.628
		c38.424,0,69.568-11.468,69.568-25.628C203.813,139.475,172.668,128.003,134.244,128.003z"/>
	<path fill="#4F6366" d="M134.244,138.986c-30.328,0.008-54.921,7.377-54.921,16.477c0,9.104,24.593,16.479,54.921,16.477
		c30.333,0,54.921-7.371,54.921-16.477C189.165,146.363,164.577,138.986,134.244,138.986z"/>
	<g>
		<g>
			<defs>
				<path id="SVGID_1_" d="M134.244,138.986c-30.328,0.008-54.921,7.377-54.921,16.477c0,9.104,24.593,16.479,54.921,16.477
					c30.333,0,54.921-7.371,54.921-16.477C189.165,146.363,164.577,138.986,134.244,138.986z"/>
			</defs>
			<clipPath id="SVGID_2_">
				<use xlink:href="#SVGID_1_"  overflow="visible"/>
			</clipPath>
			<circle clip-path="url(#SVGID_2_)" fill="#04BDAD" cx="134.245" cy="149.971" r="14.646"/>
		</g>
	</g>
</g>
<g id="Layer_4">
	<circle opacity="0.5" fill="#545454" enable-background="new    " cx="171.117" cy="82.173" r="21.973"/>
</g>
<g id="Layer_2">
	<circle fill="#04BDAD" cx="173.083" cy="81.083" r="22.649"/>
	<text transform="matrix(1 0 0 1 163.8271 90.8457)" fill="#3D3D3D" font-family="'Roboto-Light'" font-size="29.5482">1</text>
</g>
<text transform="matrix(1 0 0 1 164.5752 90.7559)" fill="#F9F9F9" font-family="'Roboto-Light'" font-size="29.5482">1</text>
</svg>
