<?xml version="1.0" encoding="utf-8"?>
<!-- Generator: Adobe Illustrator 16.0.0, SVG Export Plug-In . SVG Version: 6.00 Build 0)  -->
<!DOCTYPE svg PUBLIC "-//W3C//DTD SVG 1.1//EN" "http://www.w3.org/Graphics/SVG/1.1/DTD/svg11.dtd">
<svg version="1.1" id="Layer_1" xmlns="http://www.w3.org/2000/svg" xmlns:xlink="http://www.w3.org/1999/xlink" x="0px" y="0px"
	 width="250px" height="100px" viewBox="0 0 250 100" enable-background="new 0 0 250 100" xml:space="preserve">
<g opacity="0.54">
	<polygon points="8.576,33.008 5.585,32.994 22.583,49.997 22.651,50.057 22.583,50.143 5.7,67.006 8.687,67.006 25.631,50.057 	"/>
	<polygon points="13.816,33.008 10.833,33.008 27.828,49.997 27.899,50.057 27.828,50.143 10.968,67.006 13.949,67.006 
		30.886,50.057 	"/>
	<polygon points="19.073,32.994 16.077,33.008 33.082,49.997 33.129,50.057 33.082,50.143 16.206,67.006 19.198,67.006 
		36.138,50.057 	"/>
	<polygon points="24.326,32.994 21.335,32.994 38.333,49.997 38.395,50.057 38.333,50.143 21.458,67.006 24.446,67.006 
		41.383,50.057 	"/>
	<path d="M45.198,48.492l-0.063,0.07l-0.068-0.07l-0.998-0.986l-0.076-0.075l0.076-0.067l14.375-14.369h-2.992L42.582,45.873
		l-0.074,0.075l-0.059-0.075l-1.006-0.986l-0.06-0.07l0.074-0.074l11.739-11.734h-2.984L39.971,43.254l-0.08,0.072l-0.072-0.072
		l-0.994-0.998l-0.064-0.055l0.064-0.074l9.138-9.119l-2.996-0.014l-7.628,7.643l-0.072,0.059l-0.072-0.072l-0.998-0.986
		l-0.066-0.071l0.066-0.07l6.496-6.487h-2.971l-5.021,4.984l-0.053,0.073l-0.072-0.073l-5.001-4.984l-2.996-0.014l16.995,17.003
		l0.06,0.06l-0.06,0.086L26.703,67.006h2.99c0.057-0.053,17.005-17.009,17.005-17.009l16.999-17.003h-2.996L45.198,48.492z"/>
</g>
<g opacity="0.26">
	<path fill="#800000018000000180000001" d="M83.48,37.087h-4.823l-5.439,11.149l-5.432-11.149h-4.833l8.134,16.183v9.649h4.256
		V53.27L83.48,37.087z"/>
	<path fill="#800000018000000180000001" d="M93.116,36.871c7.258,0,13.136,5.888,13.136,13.136c0,7.241-5.891,13.13-13.136,13.13
		c-7.241,0-13.128-5.889-13.128-13.13C79.988,42.759,85.875,36.871,93.116,36.871z M84.276,50.007c0,4.873,3.967,8.846,8.84,8.846
		c4.887,0,8.844-3.973,8.844-8.846c0-4.887-3.957-8.848-8.844-8.848C88.243,41.159,84.276,45.12,84.276,50.007z"/>
	<path fill="#800000018000000180000001" d="M134.379,36.863c7.244,0.008,13.133,5.896,13.133,13.126
		c0.006,7.259-5.881,13.147-13.133,13.147c-7.254,0-13.146-5.889-13.14-13.147C121.239,42.759,127.125,36.863,134.379,36.863z
		 M125.526,49.989c0,4.891,3.972,8.857,8.853,8.857c4.883,0,8.85-3.967,8.844-8.857c0-4.869-3.951-8.836-8.838-8.836
		S125.526,45.12,125.526,49.989z"/>
	<polygon fill="#800000018000000180000001" points="125.445,36.871 119.801,36.871 111.852,47.86 111.852,36.873 107.36,36.873 
		107.36,62.692 111.852,62.692 111.852,52.056 119.414,62.692 125.06,62.692 115.453,50.032 	"/>
	<polygon fill="#800000018000000180000001" points="162.51,37.079 162.51,48.04 153.236,48.04 153.236,37.079 148.639,37.079 
		148.639,62.919 153.236,62.919 153.236,52.47 162.51,52.47 162.51,62.919 167.1,62.919 167.1,37.087 	"/>
	<path fill="#800000018000000180000001" d="M186.939,62.919h4.828l-9.539-25.84h-0.48h-3.926h-0.193l-9.533,25.84h4.811l2.391-6.596
		h9.277L186.939,62.919z M176.689,52.697l3.234-8.796l3.256,8.796H176.689z"/>
	<path fill="#800000018000000180000001" d="M239.5,62.919h4.83l-9.533-25.84h-0.502l-3.912,0.008h-0.205l-9.537,25.832h4.834
		l2.369-6.596h9.275L239.5,62.919z M229.23,52.697l3.258-8.802l3.242,8.802H229.23z"/>
	<polygon fill="#800000018000000180000001" points="217.994,37.079 214.604,37.079 213.629,37.087 206.027,56.888 198.4,37.079 
		197.416,37.087 194.057,37.079 192.732,37.087 192.732,62.919 197.34,62.919 197.416,46.024 203.873,62.919 204.072,62.919 
		207.959,62.919 208.16,62.919 214.611,46.024 214.689,62.919 219.307,62.919 219.307,37.079 	"/>
</g>
</svg>
